<?xml version="1.0" encoding="UTF-8"?><svg id="Capa_2" xmlns="http://www.w3.org/2000/svg" viewBox="0 0 559.72 216.61"><defs><style>.cls-1{fill:#fff;}.cls-2{fill:#f30;}</style></defs><g id="Capa_1-2"><g><path class="cls-2" d="M512.58,0H47.14C17.68,0-4.56,26.73,.8,55.7l22.85,123.47c4.02,21.7,22.94,37.44,45,37.44H491.06c22.06,0,40.99-15.74,45-37.44l22.85-123.47c5.36-28.97-16.88-55.7-46.34-55.7Z"/><g><path class="cls-1" d="M104.58,156.67c-3.7,0-6.27,1.48-7.9,4l-.1-2.67c0-.44-.3-.74-.74-.74h-4.89c-.44,0-.74,.3-.74,.74v32.08c0,.44,.3,.74,.74,.74h5.38c.44,0,.74-.3,.74-.74v-11.5c1.68,2.17,4.2,3.46,7.5,3.46,6.76,0,11.45-5.48,11.45-12.69s-4.69-12.69-11.45-12.69Zm-1.43,19.15c-3.65,0-6.17-2.57-6.17-6.47s2.52-6.47,6.17-6.47,6.22,2.62,6.22,6.47-2.67,6.47-6.22,6.47Z"/><rect class="cls-1" x="120.72" y="157.26" width="6.86" height="24.19" rx=".74" ry=".74"/><path class="cls-1" d="M124.17,145.42c-2.17,0-3.8,1.68-3.8,3.75s1.63,3.8,3.8,3.8,3.75-1.68,3.75-3.8-1.58-3.75-3.75-3.75Z"/><path class="cls-1" d="M151.08,175.92h-10.96l11.3-12.74c.25-.25,.35-.59,.35-.94v-4.24c0-.44-.3-.74-.74-.74h-17.62c-.44,0-.74,.3-.74,.74v4.05c0,.44,.3,.74,.74,.74h10.81l-11.35,12.74c-.25,.25-.35,.59-.35,.94v4.24c0,.44,.3,.74,.74,.74h17.82c.44,0,.74-.3,.74-.74v-4.05c0-.44-.3-.74-.74-.74Z"/><path class="cls-1" d="M174.28,175.92h-10.96l11.3-12.74c.25-.25,.35-.59,.35-.94v-4.24c0-.44-.3-.74-.74-.74h-17.62c-.44,0-.74,.3-.74,.74v4.05c0,.44,.3,.74,.74,.74h10.81l-11.35,12.74c-.25,.25-.35,.59-.35,.94v4.24c0,.44,.3,.74,.74,.74h17.82c.44,0,.74-.3,.74-.74v-4.05c0-.44-.3-.74-.74-.74Z"/><path class="cls-1" d="M202.26,157.26h-4.84c-.44,0-.74,.3-.74,.74l-.1,2.67c-1.63-2.52-4.24-4-7.9-4-6.81,0-11.5,5.53-11.5,12.69s4.69,12.69,11.5,12.69c3.6,0,6.22-1.53,7.9-4l.1,2.67c0,.44,.3,.74,.74,.74h4.79c.44,0,.79-.3,.79-.74v-22.71c0-.44-.3-.74-.74-.74Zm-12.14,18.56c-3.6,0-6.27-2.57-6.27-6.47s2.67-6.47,6.27-6.47,6.12,2.57,6.12,6.47-2.52,6.47-6.12,6.47Z"/><path class="cls-1" d="M232.62,156.67c-3.6,0-5.92,1.78-7.31,4.24l-.2-2.86c0-.59-.3-.79-.74-.79h-5.13c-.44,0-.74,.3-.74,.74v22.71c0,.44,.3,.74,.74,.74h5.33c.44,0,.74-.3,.74-.74v-12.54c0-3.41,1.88-5.23,4.74-5.23s4.49,1.83,4.49,5.23v12.54c0,.44,.3,.74,.74,.74h5.28c.44,0,.79-.3,.79-.74v-14.07c0-6.32-3.7-9.97-8.74-9.97Z"/><path class="cls-1" d="M271.03,157.26h-4.84c-.44,0-.74,.3-.74,.74l-.1,2.67c-1.63-2.52-4.24-4-7.9-4-6.81,0-11.5,5.53-11.5,12.69s4.69,12.69,11.5,12.69c3.6,0,6.22-1.53,7.9-4l.1,2.67c0,.44,.3,.74,.74,.74h4.79c.44,0,.79-.3,.79-.74v-22.71c0-.44-.3-.74-.74-.74Zm-12.14,18.56c-3.6,0-6.27-2.57-6.27-6.47s2.67-6.47,6.27-6.47,6.12,2.57,6.12,6.47-2.52,6.47-6.12,6.47Z"/><path class="cls-1" d="M292.01,156.67c-3.7,0-6.27,1.48-7.9,4l-.1-2.67c0-.44-.3-.74-.74-.74h-4.89c-.44,0-.74,.3-.74,.74v32.08c0,.44,.3,.74,.74,.74h5.38c.44,0,.74-.3,.74-.74v-11.5c1.68,2.17,4.2,3.46,7.5,3.46,6.76,0,11.45-5.48,11.45-12.69s-4.69-12.69-11.45-12.69Zm-1.43,19.15c-3.65,0-6.17-2.57-6.17-6.47s2.52-6.47,6.17-6.47,6.22,2.62,6.22,6.47-2.67,6.47-6.22,6.47Z"/><path class="cls-1" d="M319.55,156.67c-7.31,0-12.69,5.53-12.69,12.69s5.38,12.69,12.69,12.69,12.64-5.53,12.64-12.69-5.38-12.69-12.64-12.69Zm0,19.1c-3.46,0-6.12-2.47-6.12-6.42s2.67-6.42,6.12-6.42,6.07,2.47,6.07,6.42-2.67,6.42-6.07,6.42Z"/><rect class="cls-1" x="336.78" y="146.16" width="6.86" height="35.29" rx=".74" ry=".74"/><rect class="cls-1" x="349.56" y="157.26" width="6.86" height="24.19" rx=".74" ry=".74"/><path class="cls-1" d="M353.02,145.42c-2.17,0-3.8,1.68-3.8,3.75s1.63,3.8,3.8,3.8,3.75-1.68,3.75-3.8-1.58-3.75-3.75-3.75Z"/><path class="cls-1" d="M374.83,157.26h-3.8v-5.68c0-.44-.3-.74-.74-.74h-5.38c-.44,0-.74,.3-.74,.74v5.68h-3.06c-.44,0-.74,.3-.74,.74v3.8c0,.44,.3,.74,.74,.74h3.06v12.14c0,5.28,3.46,7.06,7.31,7.06,1.63,0,4.1-.3,4.1-1.43v-3.6c0-.49-.35-.74-.89-.69-.59,.05-1.09,.05-1.53,.05-1.28,0-2.12-.69-2.12-2.12v-11.4h3.8c.44,0,.74-.3,.74-.74v-3.8c0-.44-.3-.74-.74-.74Z"/><path class="cls-1" d="M403.52,157.26h-4.84c-.44,0-.74,.3-.74,.74l-.1,2.67c-1.63-2.52-4.24-4-7.9-4-6.81,0-11.5,5.53-11.5,12.69s4.69,12.69,11.5,12.69c3.6,0,6.22-1.53,7.9-4l.1,2.67c0,.44,.3,.74,.74,.74h4.79c.44,0,.79-.3,.79-.74v-22.71c0-.44-.3-.74-.74-.74Zm-12.14,18.56c-3.6,0-6.27-2.57-6.27-6.47s2.67-6.47,6.27-6.47,6.12,2.57,6.12,6.47-2.52,6.47-6.12,6.47Z"/><path class="cls-1" d="M424.25,156.67c-3.6,0-5.92,1.78-7.31,4.24l-.2-2.86c0-.59-.3-.79-.74-.79h-5.13c-.44,0-.74,.3-.74,.74v22.71c0,.44,.3,.74,.74,.74h5.33c.44,0,.74-.3,.74-.74v-12.54c0-3.41,1.88-5.23,4.74-5.23s4.49,1.83,4.49,5.23v12.54c0,.44,.3,.74,.74,.74h5.28c.44,0,.79-.3,.79-.74v-14.07c0-6.32-3.7-9.97-8.74-9.97Z"/><path class="cls-1" d="M462.65,157.26h-4.84c-.44,0-.74,.3-.74,.74l-.1,2.67c-1.63-2.52-4.24-4-7.9-4-6.81,0-11.5,5.53-11.5,12.69s4.69,12.69,11.5,12.69c3.6,0,6.22-1.53,7.9-4l.1,2.67c0,.44,.3,.74,.74,.74h4.79c.44,0,.79-.3,.79-.74v-22.71c0-.44-.3-.74-.74-.74Zm-12.14,18.56c-3.6,0-6.27-2.57-6.27-6.47s2.67-6.47,6.27-6.47,6.12,2.57,6.12,6.47-2.52,6.47-6.12,6.47Z"/><path class="cls-1" d="M500.53,127.92H54.01c-1.76,0-3.18,1.43-3.18,3.18s1.43,3.18,3.18,3.18H500.53c1.76,0,3.18-1.43,3.18-3.18s-1.43-3.18-3.18-3.18Z"/><g><path class="cls-1" d="M53.1,100.08c1.1,0,1.1,.01,2.2,.01s1.1,.12,2.2,.12,1.1-.08,2.2-.08,1.1-.17,2.2-.17,1.1,.14,2.2,.14,1.13,.23,2.2-.05c.28-.07,.11-.28-.05-.52-.7-.99-.82-.88-1.64-1.77-.83-.89-.72-.99-1.55-1.89-.83-.89-1.17-.63-1.63-1.76-.44-1.08-.1-1.13-.1-2.3s.01-1.16,.01-2.33-.11-1.17-.11-2.33-.01-1.17-.01-2.33,.28-1.17,.28-2.33-.23-1.17-.23-2.34-.6-1.38,.13-2.28c.61-.74,.89,0,1.85,0s.95-.15,1.9-.15c.77,0,1.52,.08,2.26,.05,.77-.03,1.52-.06,2.25-.12,.77-.07,1.51-.18,2.24-.27,.76-.1,1.48-.32,2.2-.46,.76-.14,1.54-.09,2.25-.27,.75-.18,1.45-.47,2.15-.69,.73-.24,1.48-.4,2.16-.68,.71-.3,1.39-.62,2.05-.96,.68-.35,1.19-.96,1.82-1.36,.64-.41,1.31-.75,1.89-1.21,.55-.45,1.15-.82,1.65-1.3,.5-.49,.86-1.11,1.3-1.64,.45-.54,1.04-.97,1.43-1.54,.39-.59,.63-1.26,.95-1.88,.32-.62,.47-1.31,.72-1.96,.24-.65,.5-1.28,.68-1.96,.17-.66,.36-1.34,.47-2.04,.11-.68,.19-1.36,.24-2.08,.05-.68,.15-1.38,.15-2.09s-.05-1.45-.1-2.14c-.05-.74-.3-1.42-.42-2.1-.11-.73-.11-1.45-.3-2.12-.2-.71-.49-1.35-.77-1.99-.28-.67-.41-1.41-.77-2.01-.37-.62-.98-1.06-1.44-1.6-.44-.52-.9-1.01-1.41-1.47-.5-.45-1-.91-1.56-1.31-.55-.39-1.09-.8-1.7-1.14-.59-.31-1.18-.68-1.82-.96-.62-.26-1.31-.38-1.97-.59-.63-.21-1.25-.53-1.93-.7-.69-.17-1.42-.21-2.17-.35-.7-.14-1.39-.4-2.14-.52-.71-.1-1.45-.08-2.2-.17-.71-.08-1.44-.07-2.19-.13-.71-.06-1.44-.12-2.18-.17-.71-.05-1.44-.28-2.18-.31-.72-.02-1.46,.27-2.21,.26-.72-.01-1.45-.29-2.19-.29-1.13,0-1.13-.04-2.25-.04s-1.12,.12-2.25,.12-1.12-.02-2.25-.02-1.12-.05-2.24-.05-1.13,.05-2.25,.05-1.13,.01-2.25,.01-1.12,.09-2.25,.09-1.12-.13-2.25-.13-1.12,.13-2.25,.13-1.13,.04-2.25,.04-1.18-.44-2.27-.16c-.28,.07-.23,.49-.05,.72,.72,.94,.93,.78,1.79,1.61,.85,.82,.77,.93,1.63,1.75,.86,.83,1.32,.46,1.81,1.55,.45,1.01-.08,1.1-.08,2.2s.05,1.1,.04,2.21c0,1.1-.12,1.1-.12,2.21,0,1.1,.04,1.1,.04,2.21,0,1.1-.01,1.1-.01,2.21s.08,1.1,.08,2.21,.05,1.1,.05,2.2c0,1.1,.12,1.1,.12,2.21,0,1.1-.14,1.1-.14,2.21,0,1.1-.15,1.1-.16,2.21,0,1.1,.19,1.1,.19,2.21,0,1.1,.02,1.1,.02,2.21s-.08,1.1-.08,2.21c0,1.1,.12,1.1,.12,2.21s-.27,1.1-.27,2.21c0,1.1,.11,1.1,.11,2.21,0,1.11-.01,1.11-.01,2.21s-.03,1.1-.03,2.21-.09,1.1-.09,2.21,0,1.11,0,2.21c0,1.1,.24,1.1,.24,2.21,0,1.11-.09,1.11-.09,2.21s.15,1.11,.14,2.21c0,1.11,.15,1.15-.27,2.17-.47,1.12-.69,.96-1.51,1.85-.83,.89-.88,.85-1.7,1.74-.83,.89-.8,.9-1.5,1.9-.17,.23-.45,.55-.17,.62,1.06,.28,1.13-.27,2.23-.27s1.1,.1,2.2,.1,1.1,.06,2.2,.06,1.1,.12,2.2,.12,1.1-.11,2.2-.11,1.1-.02,2.2-.02h2.2Zm8.26-28.29c0-1.07-.08-1.07-.08-2.15s0-1.08,0-2.15,.2-1.08,.2-2.15-.31-1.07-.31-2.15,.27-1.07,.27-2.15,.04-1.07,.04-2.15-.12-1.07-.12-2.15,.03-1.07,.03-2.15,.05-1.07,.05-2.15-.05-1.07-.05-2.15-.01-1.07-.01-2.15-.09-1.08-.09-2.15,.13-1.08,.13-2.15-.13-1.08-.13-2.16-.04-1.08-.04-2.16-.61-1.32,.14-2.09c.73-.75,.99,.04,2.04,.04,.84,0,1.63-.04,2.36,.05,.84,.11,1.57,.4,2.27,.62,.8,.26,1.55,.46,2.18,.86,.63,.41,1.15,.97,1.67,1.61,.46,.56,.9,1.19,1.27,1.94,.32,.66,.49,1.42,.74,2.21,.22,.69,.44,1.42,.61,2.25,.14,.72,.25,1.49,.35,2.31,.08,.74,.24,1.51,.3,2.33,.05,.75,.14,1.53,.16,2.35,.02,.75,.15,1.54,.15,2.35,0,.72-.14,1.41-.16,2.08-.01,.71-.19,1.39-.23,2.06-.04,.72,.11,1.42,.05,2.08-.06,.72-.11,1.41-.2,2.06-.1,.72-.28,1.39-.41,2.03-.15,.72-.18,1.43-.36,2.04-.24,.81-.53,1.56-.84,2.23-.36,.78-.81,1.44-1.25,2.02-.52,.68-1.13,1.16-1.76,1.57-.6,.39-1.29,.63-2.04,.88-.67,.22-1.36,.5-2.15,.61-.7,.09-1.45,0-2.24,0-1.29,0-1.58,.94-2.57,.11-.83-.69,.15-1.07,.15-2.14s-.12-1.08-.12-2.15Z"/><path class="cls-1" d="M126.1,96.12c-.81,.82-.85,.8-1.66,1.62-.81,.83-.91,.77-1.59,1.7-.17,.23-.24,.59,.04,.66,1.04,.28,1.09-.08,2.17-.08s1.07,.12,2.15,.12,1.08-.12,2.15-.12,1.08-.04,2.16-.04,1.07,.17,2.15,.17,1.08,0,2.16,0,1.07-.08,2.15-.08,1.07,.13,2.15,.13,1.08-.13,2.16-.13,1.08,.07,2.15,.07,1.08-.05,2.17-.05,1.16,.39,2.2,.12c.27-.08,.15-.49,.08-.77-.28-1.05-.35-1.04-.7-2.06-.35-1.03-.43-1.01-.78-2.04-.35-1.03-.4-1.01-.75-2.05-.35-1.03-.46-.99-.81-2.02-.35-1.03-.22-1.07-.58-2.11-.35-1.03-.2-1.08-.56-2.11-.35-1.03-.53-.97-.88-2-.36-1.03-.37-1.02-.72-2.05-.36-1.03-.28-1.06-.63-2.08-.35-1.03-.47-.99-.82-2.02-.35-1.03-.1-1.12-.45-2.15-.35-1.03-.46-.99-.81-2.02-.35-1.03-.34-1.03-.69-2.06-.36-1.03-.33-1.04-.68-2.07-.35-1.03-.27-1.06-.62-2.08-.35-1.03-.36-1.03-.71-2.06-.35-1.03-.58-.95-.94-1.98-.35-1.03-.27-1.06-.62-2.08-.35-1.03-.49-.98-.84-2.02-.35-1.03-.09-1.12-.44-2.15-.35-1.03-.5-.98-.85-2.01-.35-1.03-.29-1.05-.64-2.08-.35-1.03-.53-.97-.88-2.01-.35-1.03-.07-1.13-.42-2.15-.35-1.03-.61-.94-.96-1.98-.35-1.03-.26-1.06-.61-2.09-.35-1.03-.3-1.05-.65-2.08-.35-1.03-.24-1.07-.59-2.1-.35-1.03-.45-1-.81-2.03-.35-1.03-.37-1.03-.72-2.06-.35-1.03,.18-1.44-.71-2.07-.88-.63-1.1-.02-2.19-.02s-1.09-.12-2.19-.12-1.09,.08-2.18,.08-1.09,.17-2.18,.17-1.09-.14-2.18-.14-1.09,.05-2.18,.05-1.1,.05-2.19,.05-1.11,.12-2.2,0c-1.12-.12-1.14-.43-2.21-.15-.28,.07-.08,.4,0,.67,.27,.99,.52,.9,.85,1.86,.34,.97,.07,1.06,.41,2.02,.34,.96,.59,.88,.94,1.84,.34,.96,.18,1.02,.52,1.98,.34,.96,.27,.99,.61,1.95,.34,.97,.8,.87,.75,1.89-.05,1.09-.36,1.01-.8,2.01-.43,1-.53,.96-.96,1.95-.43,.99-.27,1.07-.7,2.06l-.87,1.99c-.43,1-.66,.9-1.1,1.89-.43,1-.37,1.03-.81,2.02-.43,.99-.52,.96-.95,1.95-.43,1-.16,1.12-.6,2.11-.43,1-.49,.97-.92,1.97-.43,.99-.45,.99-.89,1.98-.43,1-.59,.93-1.02,1.92-.44,1-.33,1.04-.77,2.04-.43,1-.52,.96-.96,1.95-.44,.99-.36,1.03-.8,2.02-.43,.99-.53,.95-.96,1.95-.43,1-.24,1.08-.68,2.08-.43,1-.61,.92-1.04,1.92q-.44,1-.88,1.99c-.43,.99-.23,1.09-.66,2.08-.44,.99-.68,.89-1.11,1.89-.44,1-.37,1.02-.81,2.02-.43,1-.4,1.01-.84,2.01-.44,1-.31,1.05-.75,2.05-.44,1-.49,.97-.93,1.97-.43,1-.62,.92-1.06,1.92-.44,1-.52,.98-.87,2.01-.09,.27-.12,.42,.15,.49,1.07,.28,1.08,.04,2.19,.04s1.11,.14,2.22,.14,1.11-.04,2.23-.04,1.11,.14,2.22,.14,1.11-.15,2.23-.15,1.11-.18,2.22-.18,1.11,.32,2.22,.32,1.12,0,2.23,0,1.11-.26,2.23-.26,1.11,.03,2.23,.03,1.14,.33,2.22,.05c.28-.07,.09-.27-.02-.53-.45-.52-.94-1.04-1.35-1.62-.4-.57-.77-1.17-1.12-1.8-.34-.6-.46-1.33-.77-1.98-.29-.62-.82-1.16-1.07-1.84-.25-.64-.53-1.3-.74-1.99-.21-.66-.31-1.38-.49-2.07-.17-.67-.09-1.41-.23-2.11-.14-.68-.27-1.37-.37-2.08-.1-.69-.48-1.35-.55-2.06-.08-.69-.12-1.4-.17-2.11-.05-.69,0-1.5-.02-2.21,1.07-.34,1.15,.05,2.27,.05s1.12,.07,2.24,.07,1.12,.08,2.24,.08,1.12-.13,2.24-.13,1.12,.14,2.24,.14,1.12-.11,2.24-.11,1.24-.53,2.15,.12c.9,.64,.41,.94,.77,1.99,.36,1.05,.44,1.02,.8,2.07s.34,1.06,.71,2.11c.36,1.05,.17,1.11,.53,2.16,.36,1.05,.65,.96,1.01,2.01,.36,1.05,.1,1.13,.46,2.18,.36,1.06,.32,1.07,.68,2.12,.36,1.05,1.09,.96,.83,2.04-.27,1.13-.82,.79-1.63,1.61Zm-4.71-20.18c-.6,.9-1,.19-2.08,.19s-1.07-.26-2.15-.26-1.08,.07-2.16,.07-1.07,.04-2.15,.04-1.07,.14-2.15,.14-1.08-.14-2.15-.06c-1.07,.09-1.11,.2-2.13-.16,.02-.73,.05-1.37,.1-2.1s-.08-1.48,0-2.21c.07-.72,.45-1.42,.55-2.15,.1-.73-.05-1.49,.07-2.21s.43-1.41,.58-2.14c.15-.72,.39-1.41,.56-2.12,.17-.71,.28-1.44,.48-2.15,.2-.7,.33-1.42,.55-2.13,.22-.69,.55-1.36,.79-2.05,.37-1.03,.2-1.1,.56-2.13,.37-1.03,.36-1.04,.73-2.07,.37-1.04,.37-1.03,.96-1.96,.15-.24,.26-.28,.4-.04,.59,.96,.27,1.08,.63,2.15,.36,1.07,.65,.97,1.01,2.04,.36,1.07,.31,1.09,.67,2.15,.36,1.07,.34,1.07,.7,2.14,.36,1.06,.2,1.12,.56,2.18,.36,1.07,.47,1.03,.83,2.1,.36,1.06,.27,1.1,.64,2.16,.36,1.07,.43,1.04,.79,2.11,.36,1.07,.27,1.1,.63,2.17,.36,1.07,.57,1,.93,2.06,.36,1.07,.18,1.13,.55,2.2,.36,1.07,1.36,1.13,.73,2.06Z"/><path class="cls-1" d="M160.3,49.29c.72,.84,.54,.98,1.12,1.92q.58,.94,1.16,1.88c.58,.94,.63,.91,1.21,1.85,.58,.94,.57,.95,1.14,1.89,.58,.94,.38,1.06,.96,2.01,.58,.94,.81,.8,1.39,1.74,.58,.94,.62,.92,1.2,1.86,.58,.94,.5,.99,1.08,1.93,.58,.94,.37,1.07,.95,2.01,.58,.94,.58,.94,1.16,1.88,.58,.94,.82,.79,1.4,1.73,.58,.94,.56,.95,1.14,1.89,.58,.94,.56,.95,1.14,1.89,.58,.94,.53,.97,1.11,1.91,.58,.94,.52,.98,1.1,1.92,.58,.94,.51,.98,1.09,1.92,.58,.94,.69,.88,1.27,1.82,.58,.94,.46,1.02,1.04,1.96,.58,.94,.68,.88,1.25,1.83,.58,.94,.45,1.02,1.03,1.96,.58,.94,.68,.88,1.25,1.82,.58,.94,.65,.9,1.23,1.84,.58,.94,.57,.95,1.15,1.89,.58,.94,.41,1.05,.99,1.99,.58,.94,.84,.78,1.42,1.73,.58,.95,.35,1.09,.93,2.03,.58,.95,.22,1.44,1.19,1.97,1.01,.55,1.23-.1,2.38-.1s1.15,.03,2.3,.03,1.15,.05,2.3,.05,1.15-.05,2.3-.05,1.15-.01,2.31-.01,1.15-.09,2.31-.09,1.54,.9,2.38,.1c.8-.77-.1-1.18-.1-2.3s-.04-1.11-.04-2.23,.17-1.11,.17-2.23,0-1.11,0-2.23-.08-1.11-.08-2.23,.14-1.11,.14-2.23-.14-1.11-.14-2.23,.07-1.11,.07-2.23-.05-1.11-.05-2.23,.13-1.11,.13-2.23-.04-1.11-.04-2.23,0-1.11,0-2.23-.08-1.11-.08-2.23-.05-1.11-.05-2.23-.12-1.11-.12-2.23,.14-1.11,.14-2.23,.15-1.11,.15-2.23-.19-1.11-.19-2.23-.02-1.12-.02-2.23,.08-1.11,.08-2.23-.12-1.12-.12-2.23,.27-1.12,.27-2.23-.11-1.12-.11-2.23,0-1.11,0-2.23,.02-1.12,.02-2.23,.09-1.12,.09-2.23,0-1.12,0-2.23-.25-1.12-.25-2.24,.86-1.44,.08-2.24c-.76-.78-1.09,.15-2.18,.15s-1.09-.28-2.18-.28-1.09,.16-2.18,.16-1.09-.06-2.18-.06-1.09,.19-2.17,.19-1.09-.3-2.18-.3-1.09,.27-2.18,.27-1.09-.1-2.18-.1-1.09-.06-2.18-.06-1.12-.27-2.2-.12c-.29,.04-.1,.46,.02,.72,.49,.51,.99,1.01,1.46,1.54,.48,.52,1.03,.98,1.49,1.52,.46,.54,.91,1.09,1.35,1.64,.44,.55,.85,1.13,1.28,1.69,.43,.56,.77,1.19,1.18,1.76,.41,.57,.69,1.24,1.08,1.82,.39,.58,.97,1.05,1.34,1.65,.38,.6,.84,1.14,1.2,1.75,.36,.61,.61,1.28,.96,1.9,.34,.61,.7,1.23,1.03,1.85,.33,.62,.51,1.32,.82,1.96,.31,.63,.65,1.25,.95,1.9,.31,.68,.51,1.4,.8,2.08,.29,.69,.62,1.36,.89,2.05,.27,.7,.63,1.36,.87,2.06,.24,.71,.35,1.45,.56,2.16,.22,.72,.42,1.43,.61,2.14,.19,.72,.56,1.4,.72,2.12,.16,.73,.32,1.46,.45,2.19,.13,.74-.04,1.51,.06,2.25,.1,.74,.18,1.47,.24,2.21,.07,.74,.25,1.47,.29,2.21,.03,.74-.05,1.49-.05,2.23q0,.94,0,1.88c0,.94,.03,.94,.03,1.88s.49,1.02,.22,1.92c-.08,.27-.46,.1-.65-.11-.75-.81-.58-.92-1.15-1.86-.58-.94-.78-.82-1.36-1.76-.58-.94-.46-1.01-1.03-1.96-.58-.94-.63-.91-1.21-1.85-.58-.94-.44-1.03-1.01-1.97-.58-.94-.59-.93-1.17-1.87-.58-.94-.62-.91-1.2-1.86-.58-.94-.48-1-1.05-1.94-.58-.94-.53-.97-1.11-1.91-.58-.94-.74-.84-1.31-1.78-.58-.94-.47-1.01-1.04-1.95-.58-.94-.59-.93-1.17-1.88-.58-.94-.6-.93-1.18-1.87-.58-.94-.52-.98-1.09-1.92-.58-.94-.76-.83-1.34-1.77-.58-.94-.63-.91-1.2-1.85-.58-.94-.49-1-1.07-1.94-.58-.94-.63-.91-1.2-1.85-.58-.94-.54-.97-1.11-1.91-.58-.94-.41-1.05-.98-1.99-.58-.94-.75-.83-1.33-1.77-.58-.94-.45-1.02-1.03-1.96-.58-.94-.56-.95-1.14-1.9-.58-.94-.61-.92-1.19-1.87-.58-.94-.55-.96-1.13-1.9-.58-.95-.73-.85-1.31-1.8-.58-.95-.12-1.38-1.09-1.91-.99-.55-1.12-.11-2.26-.11s-1.14,.05-2.27,.05-1.14,.1-2.27,.1-1.14-.06-2.27-.06-1.13,.13-2.27,.13-1.14-.12-2.27-.12-1.14-.02-2.27-.02-1.14,.1-2.27,.1-1.14-.24-2.28-.24-1.17-.12-2.28,.11c-.23,.05-.01,.25,.1,.46,.55,1.07,.51,1.09,1.16,2.1,.65,1.01,.62,1.03,1.27,2.04,.65,1.01,.73,.96,1.38,1.97,.65,1.01,.59,1.05,1.24,2.07,.65,1.01,.93,.86,1.28,2.01,.32,1.03,.12,1.05,.12,2.13s-.22,1.08-.22,2.15,.02,1.08,.02,2.15,.15,1.08,.15,2.15,.04,1.08,.04,2.15-.01,1.08-.01,2.15,.11,1.08,.11,2.15-.18,1.08-.18,2.15,.14,1.08,.14,2.15-.15,1.08-.15,2.15,.04,1.08,.04,2.15-.13,1.08-.13,2.15,.12,1.08,.12,2.15,.02,1.08,.02,2.15,.15,1.08,.15,2.16-.31,1.08-.31,2.15,.32,1.08,.32,2.16-.26,1.08-.26,2.16,.07,1.08,.07,2.16,.18,1.08,.18,2.15-.29,1.08-.29,2.16,.26,1.08,.26,2.16-.17,1.08-.17,2.16-.08,1.08-.08,2.16-.69,1.44,.09,2.19c.79,.77,1.14-.06,2.25-.06s1.11,.1,2.21,.1,1.11-.18,2.22-.18,1.11,0,2.22,0,1.11,.25,2.21,.25,1.11-.07,2.22-.07,1.11,.09,2.22,.09,1.11-.3,2.22-.3,1.11,.06,2.22,.06,1.13,.3,2.2,.02c.28-.07,.24-.3,.11-.56-.54-.54-1.18-1.03-1.7-1.57-.53-.55-.97-1.17-1.48-1.73-.51-.56-1.07-1.08-1.57-1.65-.5-.58-.9-1.22-1.38-1.81-.48-.59-1.12-1.06-1.58-1.66-.46-.61-.76-1.33-1.2-1.94-.44-.62-.87-1.24-1.29-1.87-.42-.63-1.02-1.15-1.42-1.79-.4-.65-.57-1.43-.95-2.08-.38-.66-.81-1.28-1.16-1.95-.36-.67-.73-1.33-1.07-2.01-.33-.67-.76-1.29-1.06-1.97-.3-.68-.53-1.39-.79-2.09-.27-.69-.32-1.46-.56-2.17-.23-.7-.46-1.41-.66-2.12-.2-.71-.63-1.37-.81-2.09-.17-.72-.28-1.46-.43-2.19-.14-.73-.14-1.48-.25-2.22-.11-.73-.25-1.46-.33-2.2-.08-.73-.01-1.48-.07-2.23-.05-.74-.24-1.47-.27-2.22-.03-.74-.22-1.48-.22-2.23,0-1.05,.32-1.05,.32-2.1s-.01-1.05-.01-2.1-.48-1.1-.25-2.13c.05-.23,.5-.21,.65-.03Z"/><path class="cls-1" d="M254.16,100.12c.77,.76,1.13-.02,2.21-.02s1.08-.1,2.15-.1,1.08,.06,2.15,.06,1.08-.13,2.15-.13,1.08,.12,2.15,.12,1.08,.02,2.15,.02,1.08-.1,2.15-.1,1.08,.24,2.15,.24,1.08-.11,2.15-.11,1.08-.14,2.16-.14,1.13,.44,2.17,.16c.28-.07,.23-.45,.06-.68-.71-.94-.92-.77-1.76-1.6-.84-.83-.79-.88-1.64-1.71-.84-.83-1.19-.56-1.66-1.64-.44-1-.12-1.06-.12-2.15,0-1.09,.22-1.09,.22-2.18,0-1.09-.02-1.09-.02-2.18,0-1.09-.15-1.09-.15-2.18,0-1.09-.04-1.09-.03-2.18,0-1.09,.02-1.09,.02-2.18,0-1.09-.11-1.09-.11-2.18,0-1.09,.18-1.09,.18-2.18,0-1.09-.14-1.09-.14-2.18,0-1.09,.15-1.09,.15-2.18,0-1.09-.04-1.09-.03-2.18,0-1.09,.13-1.09,.13-2.18,0-1.09-.12-1.09-.12-2.18,0-1.09-.02-1.09-.02-2.18,0-1.09-.15-1.09-.14-2.18,0-1.09,.31-1.09,.31-2.18,0-1.09-.32-1.09-.32-2.18,0-1.09,.26-1.09,.27-2.18,0-1.09-.07-1.09-.07-2.18,0-1.09-.18-1.09-.18-2.18,0-1.09,.29-1.09,.29-2.18,0-1.09-.26-1.09-.26-2.18,0-1.09,.17-1.09,.17-2.18,0-1.09,.08-1.09,.08-2.18,0-1.09-.07-1.09-.07-2.18,0-1.09-.33-1.13-.07-2.2,.29-1.2,.91-1.51,.15-2.29-.76-.77-1.19,.25-2.27,.25s-1.08-.03-2.16-.03-1.08-.26-2.16-.26-1.08,.24-2.16,.24-1.08-.12-2.16-.12-1.08,.15-2.16,.15-1.08,.05-2.16,.05-1.08-.3-2.16-.3-1.08,.14-2.16,.14-1.08-.15-2.17-.15-1.14-.22-2.19,.06c-.28,.07-.1,.39,.07,.62,.73,.94,.85,.82,1.71,1.65,.86,.83,.94,.75,1.8,1.58,.86,.83,1.04,.72,1.52,1.81,.45,1,.17,1.06,.17,2.15,0,1.09,0,1.09,0,2.19,0,1.09-.22,1.09-.22,2.19,0,1.09-.05,1.09-.05,2.18,0,1.09,.13,1.09,.13,2.18,0,1.09,.18,1.09,.18,2.18,0,1.09-.29,1.09-.29,2.19,0,1.09-.03,1.09-.04,2.18,0,1.09,.11,1.09,.11,2.19,0,1.09,.11,1.09,.1,2.19,0,1.09,.02,1.09,.02,2.19,0,1.09,.02,1.09,.02,2.19,0,1.09-.24,1.09-.24,2.19,0,1.09,.04,1.09,.04,2.19,0,1.09,.18,1.09,.18,2.19,0,1.09-.07,1.09-.07,2.19,0,1.09-.08,1.09-.08,2.19,0,1.09,.15,1.09,.15,2.19,0,1.09-.08,1.09-.08,2.19,0,1.1-.2,1.1-.2,2.19,0,1.1,.49,1.14,.3,2.22-.49,.56-1.12,1.05-1.64,1.48-.57,.48-1.18,.83-1.78,1.16-.64,.34-1.24,.78-1.92,.95-.68,.17-1.42,.28-2.14,.28-.81,0-1.58-.17-2.25-.39-.73-.24-1.38-.68-1.94-1.18-.53-.47-1.04-1.05-1.42-1.76-.35-.64-.65-1.39-.89-2.2-.21-.71-.2-1.51-.33-2.35-.12-.73-.28-1.5-.34-2.34-.05-.75-.19-1.54-.19-2.37,0-1.13,.18-1.13,.18-2.25s-.22-1.12-.22-2.25,.11-1.12,.11-2.25-.08-1.12-.08-2.25,.28-1.13,.28-2.25-.24-1.12-.24-2.25-.05-1.13-.05-2.25,.07-1.13,.07-2.25,.18-1.13,.18-2.25-.16-1.13-.16-2.25,.01-1.13,.01-2.25-.06-1.13-.06-2.25,.06-1.13,.06-2.25,.14-1.13,.14-2.25,.04-1.13,.04-2.25-.23-1.13-.23-2.25,.1-1.13,.1-2.25,.03-1.13,.03-2.26,.71-1.41-.07-2.23c-.74-.78-1.05-.17-2.12-.17s-1.08,.11-2.15,.11-1.08,0-2.15,0-1.08-.13-2.15-.13-1.08,.15-2.15,.15-1.08,.02-2.15,.02-1.08,.11-2.15,.11-1.08-.01-2.15-.01-1.08-.04-2.15-.04-1.08-.09-2.16-.09-1.16-.42-2.2-.15c-.28,.07-.09,.48,.08,.71,.71,.94,.91,.74,1.76,1.57,.84,.83,.76,.91,1.61,1.74,.84,.83,1.25,.57,1.72,1.66,.45,1.03-.15,1.15-.16,2.28,0,1.13,.04,1.13,.04,2.25,0,1.13-.11,1.13-.11,2.25,0,1.13,.06,1.13,.06,2.25,0,1.13,.12,1.13,.12,2.25,0,1.13-.12,1.13-.13,2.25,0,1.13,0,1.13,0,2.25,0,1.13,.21,1.13,.2,2.26,0,1.13,.01,1.13,.01,2.25,0,1.13-.29,1.13-.29,2.25q0,1.13,0,2.26c0,1.13,.14,1.13,.13,2.26,0,1.13-.1,1.13-.11,2.25q0,1.13,0,2.26c0,1.13,.02,1.13,.02,2.26,0,1.13,.23,1.13,.22,2.26,0,1.13-.25,1.13-.25,2.26,0,1.13,.01,1.13,.01,2.26,0,.78,.26,1.54,.3,2.27,.05,.79-.02,1.55,.07,2.28,.1,.78,.29,1.52,.44,2.24,.17,.77,.2,1.55,.43,2.25,.24,.75,.55,1.46,.86,2.12,.33,.71,.76,1.34,1.17,1.96,.43,.64,.82,1.31,1.34,1.86,.55,.58,1.12,1.16,1.75,1.64,.63,.48,1.41,.75,2.11,1.12,.69,.36,1.37,.8,2.13,1.06,.73,.25,1.51,.45,2.3,.61,.75,.15,1.55,.24,2.36,.32,.76,.07,1.56,.17,2.38,.17,.55,0,1.15-.37,1.87-.69,.53-.23,1.06-.59,1.69-1,.51-.33,1.1-.62,1.67-1.06,.53-.41,1.1-.95,1.78-1.53,.55-.46,1.17-.94,1.81-1.51,.55-.49,1.27-.87,1.88-1.43,.55-.5,.98-1.19,1.59-1.75,.55-.51,1.22-.94,1.82-1.51,.55-.52,.96-1.09,1.55-1.65,.37,.99,.03,1.02,.03,2.08s-.03,1.06-.03,2.12,.18,1.06,.18,2.12-.06,1.06-.06,2.12-.84,1.43-.09,2.18Z"/><path class="cls-1" d="M341.98,72.05c.06-.69,.15-1.41,.18-2.13,.03-.7-.14-1.41-.14-2.14s-.04-1.45-.07-2.18c-.04-.73-.04-1.45-.11-2.17-.08-.73-.11-1.45-.23-2.17-.12-.72-.3-1.42-.46-2.14-.16-.71-.35-1.41-.55-2.1-.21-.7-.26-1.45-.51-2.14-.25-.68-.59-1.33-.88-2-.29-.66-.71-1.27-1.04-1.92-.36-.71-.58-1.47-.97-2.14-.4-.68-1.01-1.22-1.45-1.86-.45-.65-.83-1.33-1.32-1.93-.5-.61-1.06-1.15-1.6-1.71-.53-.57-.9-1.32-1.48-1.85-.58-.52-1.34-.84-1.96-1.32-.62-.48-1.2-1.01-1.85-1.44-.65-.42-1.31-.81-1.97-1.17-.67-.37-1.38-.66-2.07-.97-.7-.31-1.38-.68-2.09-.93-.72-.24-1.47-.4-2.21-.59-.74-.18-1.47-.44-2.23-.56-.75-.12-1.51-.21-2.28-.27-.75-.06-1.52-.05-2.29-.05-.67,0-1.39,.26-2.22,.41-.68,.12-1.41,.25-2.2,.47-.68,.19-1.47,.18-2.23,.44-.67,.23-1.32,.65-2.06,.94-.67,.26-1.39,.49-2.11,.8-.64,.28-1.18,.78-1.81,1.11-.62,.33-1.39,.39-1.99,.77-.59,.37-1.08,.91-1.66,1.33-.56,.41-1.04,.94-1.58,1.4-.53,.45-1.17,.78-1.7,1.27-.5,.47-1.08,.91-1.57,1.42-.48,.5-.93,1.06-1.39,1.6-.46,.53-.81,1.15-1.26,1.71-.44,.56-.91,1.1-1.29,1.7-.39,.59-.81,1.17-1.15,1.81-.33,.62-.69,1.25-.97,1.92-.28,.64-.45,1.35-.68,2.03-.23,.66-.21,1.41-.4,2.11-.18,.68-.59,1.31-.74,2.02-.14,.69-.33,1.39-.43,2.11-.09,.69-.08,1.42-.14,2.14-.06,.7-.19,1.41-.22,2.14-.03,.7-.06,1.42-.06,2.14s.32,1.46,.36,2.18c.04,.73-.18,1.48-.1,2.2,.08,.73,.34,1.44,.46,2.15,.11,.72,.34,1.42,.5,2.13,.16,.71,.35,1.41,.55,2.11,.2,.7,.15,1.49,.39,2.17,.25,.69,.79,1.26,1.08,1.93,.29,.67,.57,1.34,.9,1.99,.36,.7,.5,1.51,.9,2.18,.4,.68,1.03,1.2,1.47,1.83,.45,.65,.81,1.34,1.3,1.95,.49,.61,1.12,1.09,1.65,1.66s1.12,1.07,1.7,1.59c.58,.52,.98,1.25,1.6,1.73,.61,.47,1.34,.81,1.99,1.24,.65,.43,1.24,.96,1.92,1.32,.68,.37,1.41,.66,2.11,.97,.71,.31,1.48,.45,2.21,.69,.73,.25,1.46,.47,2.21,.65,.75,.18,1.51,.22,2.28,.34,.75,.12,1.49,.46,2.27,.52,.76,.05,1.54-.1,2.32-.1,.65,0,1.38-.08,2.2-.23,.67-.12,1.45-.08,2.23-.31,.67-.18,1.4-.37,2.15-.63,.66-.23,1.32-.62,2.05-.91,.66-.26,1.28-.72,2-1.03,.64-.28,1.4-.33,2.02-.66,.62-.33,1.25-.66,1.86-1.04,.59-.37,1.12-.86,1.69-1.28,.56-.41,1.05-.93,1.6-1.39,.53-.45,1.04-.93,1.56-1.42,.5-.47,.99-.98,1.48-1.5,.48-.5,1.13-.87,1.6-1.41,.46-.53,.87-1.1,1.32-1.67,.44-.55,.71-1.24,1.1-1.84,.39-.59,.79-1.17,1.13-1.8,.33-.62,.71-1.23,1-1.89,.28-.65,.39-1.36,.63-2.05,.23-.66,.51-1.32,.69-2.02,.18-.68,.53-1.33,.68-2.04,.14-.69-.05-1.44,.06-2.16,.1-.69,.3-1.38,.36-2.11Zm-14.75,15.21c0,.81-.07,1.54-.13,2.24-.08,.81-.1,1.55-.28,2.22-.21,.79-.46,1.5-.8,2.08-.44,.74-.96,1.29-1.58,1.67-.65,.39-1.38,.62-2.22,.62-.69,0-1.38-.2-2.09-.43-.64-.21-1.31-.45-1.96-.83-.58-.34-1.1-.83-1.69-1.31-.52-.43-1.05-.9-1.59-1.42-.48-.48-.99-.97-1.48-1.54-.45-.52-1.05-.95-1.51-1.54-.44-.56-.84-1.18-1.28-1.79-.41-.58-.61-1.33-1.01-1.96-.39-.6-.91-1.13-1.29-1.77-.36-.62-.66-1.29-1.01-1.94-.34-.63-.88-1.17-1.21-1.84-.33-.64-.35-1.44-.67-2.11-.31-.65-.76-1.24-1.06-1.92-.29-.66-.69-1.28-.98-1.97-.28-.66-.4-1.41-.67-2.09-.27-.67-.43-1.39-.69-2.08-.26-.68-.54-1.34-.78-2.01-.25-.69-.59-1.33-.81-1.99-.24-.69-.4-1.39-.61-2.06-.22-.7-.36-1.4-.55-2.07-.2-.71-.35-1.41-.52-2.08-.18-.71-.45-1.38-.6-2.06-.16-.72-.53-1.38-.65-2.06-.13-.73,.01-1.48-.08-2.16-.1-.74-.11-1.45-.16-2.14-.05-.74-.18-1.44-.18-2.12,0-.84,.12-1.6,.2-2.33,.09-.85,.24-1.58,.45-2.27,.23-.82,.27-1.66,.65-2.26,.49-.75,1.24-1.12,1.9-1.51,.68-.39,1.39-.74,2.27-.74,.75,0,1.55,.05,2.33,.32,.68,.24,1.41,.58,2.12,1.03,.61,.39,1.06,1.09,1.69,1.64,.55,.47,1.32,.8,1.88,1.4,.51,.53,1,1.15,1.53,1.78,.45,.56,.69,1.31,1.14,1.92,.42,.58,1.04,1.05,1.45,1.69,.39,.61,.68,1.3,1.07,1.95,.37,.62,.87,1.19,1.23,1.86,.34,.63,.74,1.27,1.08,1.94,.33,.65,.39,1.44,.71,2.12,.31,.66,.75,1.27,1.06,1.96,.3,.66,.46,1.4,.75,2.1,.29,.67,.62,1.34,.9,2.04,.28,.71,.69,1.35,.96,2.04,.27,.71,.53,1.42,.78,2.11,.26,.72,.61,1.39,.85,2.09,.24,.72,.23,1.52,.45,2.22,.23,.73,.61,1.4,.81,2.1,.21,.74,.41,1.47,.59,2.17,.18,.75,.15,1.52,.3,2.24,.17,.75,.26,1.49,.39,2.21,.13,.76,.37,1.48,.46,2.2,.09,.76,.35,1.49,.4,2.21,.05,.77-.21,1.53-.21,2.25Z"/><path class="cls-1" d="M522.8,63.42c-.08-.72-.24-1.44-.36-2.15-.12-.72-.08-1.47-.24-2.18-.16-.71-.4-1.41-.6-2.11-.21-.7-.61-1.33-.86-2.01-.24-.69-.42-1.39-.71-2.06-.29-.67-.66-1.29-.99-1.95-.36-.7-.61-1.46-1-2.12-.4-.68-.72-1.41-1.16-2.05-.45-.65-.96-1.26-1.45-1.86-.49-.61-1.01-1.21-1.55-1.77-.54-.57-1.25-.97-1.83-1.5-.58-.52-1.04-1.18-1.67-1.66-.62-.48-1.42-.69-2.08-1.13-.64-.43-1.16-1.03-1.83-1.39-.68-.37-1.38-.69-2.07-.99-.7-.31-1.46-.46-2.18-.7-.72-.25-1.41-.6-2.15-.78-.74-.18-1.52-.13-2.28-.26-.75-.12-1.48-.43-2.24-.49-.75-.06-1.52,0-2.29,0-.67,0-1.42,.04-2.25,.18-.68,.12-1.44,.19-2.23,.41-.68,.19-1.35,.59-2.1,.85-.68,.23-1.41,.41-2.15,.7-.67,.27-1.41,.46-2.13,.77-.64,.28-1.23,.7-1.86,1.03-.61,.33-1.23,.66-1.83,1.04-.59,.37-1.2,.73-1.78,1.15-.56,.41-1.12,.85-1.66,1.31-.53,.45-.9,1.09-1.42,1.58-.5,.47-1.07,.9-1.56,1.42-.48,.5-1.07,.92-1.54,1.46-.45,.53-.8,1.15-1.25,1.71-.44,.56-.78,1.18-1.17,1.78-.39,.59-.72,1.2-1.06,1.84-.33,.62-.81,1.17-1.1,1.83-.28,.65-.42,1.35-.66,2.04-.23,.66-.65,1.28-.84,1.98-.18,.68-.24,1.4-.38,2.11-.14,.68-.21,1.39-.31,2.11-.1,.69-.1,1.41-.16,2.13-.06,.69-.08,1.41-.11,2.13-.03,.7-.13,1.41-.13,2.13s-.02,1.47,.02,2.19c.04,.74,.24,1.45,.31,2.17,.08,.73,.03,1.47,.14,2.18,.12,.72,.18,1.46,.34,2.17,.15,.71,.36,1.42,.56,2.12,.21,.7,.5,1.37,.75,2.06,.24,.69,.58,1.34,.87,2.01,.29,.66,.4,1.42,.73,2.08,.36,.7,.83,1.34,1.22,1.99,.4,.68,.72,1.41,1.16,2.04,.45,.65,.97,1.23,1.46,1.84,.49,.61,1.03,1.17,1.57,1.74s1.23,.97,1.8,1.49c.58,.52,1.03,1.19,1.65,1.67,.61,.47,1.25,.93,1.9,1.36,.65,.43,1.29,.87,1.97,1.24,.68,.37,1.43,.61,2.13,.92,.71,.31,1.42,.61,2.15,.85,.73,.24,1.48,.42,2.24,.61,.74,.18,1.5,.36,2.26,.48,.76,.12,1.54,.02,2.32,.08,.76,.06,1.52,.28,2.3,.28,.65,0,1.38-.21,2.2-.36,.67-.12,1.42-.17,2.2-.39,.67-.19,1.42-.31,2.17-.57,.67-.23,1.26-.79,1.99-1.08,.66-.26,1.48-.23,2.2-.55,.64-.27,1.28-.6,1.91-.93,.61-.33,1.07-.95,1.67-1.33,.59-.37,1.19-.73,1.77-1.15,.56-.41,1.23-.68,1.79-1.14,.53-.45,1.07-.91,1.59-1.4,.5-.47,.9-1.07,1.39-1.6,.48-.5,1.04-.94,1.51-1.48,.46-.52,.83-1.13,1.28-1.69,.44-.56,.96-1.07,1.35-1.67,.39-.59,.59-1.3,.93-1.93,.33-.62,.55-1.29,.84-1.95,.28-.65,.54-1.29,.78-1.98,.23-.66,.5-1.32,.68-2.02,.18-.68,.47-1.34,.62-2.05,.14-.68,.26-1.39,.37-2.11,.1-.69,.01-1.41,.08-2.14,.06-.7,.17-1.4,.2-2.12,.03-.7,.16-1.41,.16-2.14s-.12-1.46-.17-2.18c-.04-.73-.07-1.46-.14-2.18Zm-14.69,26.09c-.08,.81-.08,1.58-.26,2.24-.21,.8-.49,1.52-.84,2.11-.44,.74-1.09,1.2-1.71,1.58-.65,.39-1.36,.44-2.21,.44-.69,0-1.35-.07-2.06-.3-.64-.2-1.26-.49-1.92-.88-.58-.34-1.28-.57-1.87-1.05-.52-.42-.91-1.05-1.45-1.58-.49-.47-1.18-.8-1.67-1.36-.45-.52-.71-1.23-1.17-1.82-.44-.56-.9-1.13-1.32-1.74-.41-.59-.94-1.11-1.34-1.74-.39-.61-.65-1.3-1.03-1.94-.36-.62-.9-1.15-1.26-1.8-.34-.63-.48-1.38-.82-2.05-.33-.64-.72-1.26-1.04-1.93-.31-.65-.58-1.33-.88-2.01-.29-.66-.49-1.36-.78-2.05-.28-.66-.72-1.27-1-1.96-.27-.67-.45-1.39-.71-2.08-.26-.68-.4-1.39-.64-2.05-.25-.69-.6-1.33-.82-1.99-.23-.69-.44-1.38-.65-2.05-.22-.69-.37-1.39-.57-2.07-.2-.71-.4-1.39-.58-2.06-.18-.71-.58-1.36-.73-2.04-.16-.72-.21-1.45-.34-2.13-.13-.73-.09-1.46-.18-2.14-.1-.74-.3-1.43-.35-2.12-.06-.74-.18-1.46-.18-2.14,0-.84,.02-1.64,.09-2.36,.09-.84,.42-1.58,.62-2.27,.24-.82,.45-1.59,.83-2.19,.49-.75,1.2-1.15,1.86-1.53,.68-.4,1.39-.68,2.27-.68,.75,0,1.51,.08,2.29,.36,.68,.24,1.43,.51,2.14,.96,.61,.39,1.26,.84,1.89,1.39,.55,.47,1.06,1.09,1.63,1.68,.51,.53,1,1.15,1.51,1.78,.46,.56,1.02,1.06,1.47,1.68,.42,.58,.72,1.28,1.13,1.91,.4,.61,.71,1.28,1.1,1.93,.37,.62,.75,1.25,1.12,1.92,.35,.63,.76,1.25,1.1,1.93,.33,.65,.72,1.28,1.05,1.96,.31,.65,.42,1.42,.72,2.11,.3,.66,.69,1.3,.99,1.99,.28,.68,.45,1.41,.72,2.11,.28,.71,.62,1.38,.88,2.07,.27,.71,.56,1.4,.82,2.09,.25,.72,.69,1.36,.93,2.06,.24,.72,.26,1.51,.48,2.21,.23,.73,.43,1.45,.64,2.15,.21,.74,.35,1.47,.53,2.18,.18,.75,.47,1.45,.62,2.16,.16,.75,.28,1.49,.4,2.21,.13,.76,.28,1.5,.37,2.22,.1,.76,.14,1.51,.18,2.23,.05,.77,.27,1.52,.27,2.24,0,.81-.23,1.55-.3,2.25Z"/><path class="cls-1" d="M498.26,72.78c-.35-.68-.35-1.5-.46-2.24-.12-.75-.15-1.49-.03-2.24,.12-.74,.21-1.51,.56-2.2,.34-.66,.91-1.23,1.46-1.79,.1-.7-.43-.68-1.12-.89-.55,.55-1.19,.74-1.85,1.07-.68,.35-1.33,.86-2.07,.98-.75,.12-1.53-.11-2.28-.23-.74-.12-1.42-.39-2.11-.74-.66-.34-1.34-.68-1.89-1.23-.69,.2-.69,.37-.9,1.06,.55,.55,1,1.07,1.34,1.73,.35,.68,.29,1.5,.41,2.24,.12,.75,.13,1.46,.01,2.21-.12,.74-.15,1.52-.49,2.2-.34,.66-.93,1.28-1.48,1.83,.2,.69,.46,.68,1.14,.88,.55-.55,1.16-.85,1.82-1.19,.68-.35,1.42-.45,2.16-.56,.75-.12,1.47-.16,2.21-.04,.74,.12,1.43,.34,2.11,.69,.66,.34,1.32,.59,1.87,1.14,.69-.2,.96-.22,1.17-.91-.55-.55-1.26-1.14-1.6-1.8Z"/><path class="cls-1" d="M376.29,42.22c-.47,.97-1,1.77-1.4,2.55-.47,.92-.63,1.89-1.06,2.72-.43,.83-1.26,1.45-1.74,2.36-.41,.78-.45,1.83-.94,2.78-.4,.77-1.08,1.5-1.57,2.45-.4,.79-.6,1.77-1.08,2.71-.48,.95-1.43,1.54-1.83,2.33-.48,.96-.85,1.85-1.25,2.63-.49,.96-.54,2-.94,2.78-.46,.92-1.04,1.68-1.46,2.52-.42,.84-.63,1.78-1.1,2.7-.39,.78-.93,1.57-1.42,2.53-.39,.78-.8,1.64-1.28,2.6-.4,.79-1.29,1.42-1.77,2.37-.48,.95-.77,1.88-1.17,2.66-.49,.96-.7,1.93-1.1,2.7-.49,.96-1.11,1.71-1.51,2.49-.48,.92-1.09,1.65-1.52,2.48-.43,.83-.51,1.84-.98,2.76-.4,.78-1.19,1.44-1.67,2.41-.39,.78-.46,1.82-.93,2.78-.39,.79-1.04,1.55-1.5,2.5-.15,.3-.16,.62,.18,.63,1.01,.03,1.95-.08,2.81-.06,1.03,.02,1.95,.52,2.8,.54,1.03,.02,1.97-.52,2.82-.51,1.01,.01,1.93,.13,2.81,.13,.95,0,1.86,.4,2.81,.4,.88,0,1.79-.24,2.81-.25,.85,0,1.78-.02,2.81-.02,.85,0,1.78-.1,2.81-.1,.87,0,1.8,.17,2.82,.17,.95,0,1.82,.28,2.68,.37,.94,.1,1.8,.25,2.65,.43,.93,.2,1.8,.33,2.63,.58,.9,.28,1.83,.35,2.64,.64,.89,.33,1.63,.97,2.44,1.26,.9,.31,1.85,.36,2.69,.53,.91,.18,1.81,.1,2.71,0,.85-.09,1.85,.03,2.74-.4,.73-.35,1.36-1.11,2.15-1.75,.63-.52,1.45-.98,2.14-1.72,.72-.78,.92-1.86,1.43-2.56,.63-.87,1.52-1.45,1.88-2.24,.44-.96,.41-1.97,.52-2.86,.12-.97,.36-1.94,.2-2.9-.16-.91-.62-1.8-.93-2.75-.29-.87-.35-1.87-.69-2.82-.31-.86-.77-1.71-1.06-2.68-.27-.88-.31-1.84-.53-2.83-.19-.9-.89-1.75-1.01-2.76-.11-.91-.02-1.89-.05-2.91,0-.29-.43-.32-.6-.09-.61,.82-.69,1.76-1.09,2.32-.59,.83-1.13,1.35-1.54,1.98-.41,.63-.83,1.25-1.38,2.1-.37,.58-.8,1.27-1.37,2.11-.52,.8-.92,1.62-1.4,2.34-.53,.8-.99,1.59-1.48,2.3-.55,.8-1.39,1.32-1.89,2.01-.58,.81-.91,1.7-1.41,2.35-.63,.83-1.2,1.55-1.69,2.15-.56,.67-1.37,1.07-1.97,1.62-.64,.59-1.12,1.36-1.81,1.81-.72,.47-1.6,.63-2.37,.96-.86,.36-1.89,.4-3,.62-.93,.19-1.91,.43-3.02,.51-.96,.07-1.98,.18-3.08,.18-.62,0-1.6,.69-1.35,.12,.44-.97,.65-1.93,1.03-2.74,.45-.98,1.33-1.63,1.71-2.41,.47-.97,.52-2.01,.93-2.79,.48-.92,.99-1.71,1.44-2.53,.45-.82,.94-1.62,1.44-2.53,.43-.77,1.01-1.53,1.53-2.48,.41-.77,.56-1.77,1.06-2.73,.41-.79,1.39-1.37,1.87-2.31,.48-.95,.8-1.87,1.2-2.66,.49-.96,.85-1.86,1.24-2.64,.49-.96,.67-1.94,1.06-2.72,.47-.92,1.26-1.57,1.68-2.41,.42-.84,.62-1.79,1.08-2.71,.4-.78,.92-1.59,1.41-2.55,.4-.78,.76-1.67,1.24-2.63,.4-.79,1.15-1.49,1.64-2.44,.48-.95,.74-1.9,1.14-2.68,.49-.96,.85-1.86,1.25-2.63,.5-.96,1.16-1.69,1.57-2.47,.48-.92,.43-2,.86-2.83,.43-.83,1.29-1.45,1.76-2.37,.4-.78,.65-1.72,1.13-2.69,.39-.78,.63-1.73,1.11-2.69,.39-.79,.73-1.7,1.2-2.66,.15-.3,.63-.67,.29-.68-1.01-.03-1.94-.05-2.8-.07-1.02-.02-1.95-.21-2.8-.22-1.03-.01-1.96-.04-2.81-.04-1.01,0-1.92,.53-2.8,.55-.95,.02-1.86-.27-2.81-.24-.88,.02-1.79-.16-2.8-.14-.85,.02-1.77,.24-2.79,.26-.85,.01-1.78,.07-2.8,.08-.86,0-1.79,.25-2.81,.25s-1.96-.59-2.86-.66c-1.03-.08-2.06,.43-2.94,.28-1.02-.17-1.91-.65-2.78-.86-1-.24-1.9-.56-2.77-.79-.97-.26-1.83-.8-2.76-.96-.93-.16-1.92,.16-2.92,.2-.88,.03-1.78,.27-2.8,.53-.84,.22-1.84,.21-2.82,.62-.81,.34-1.55,1.01-2.48,1.51-.91,.48-1.74,.85-2.4,1.35-.84,.63-1.23,1.45-1.7,2.11-.58,.81-1.06,1.49-1.2,2.36-.14,.88,.06,1.72,.24,2.68,.16,.85,.06,1.82,.39,2.74,.29,.82,.43,1.77,.79,2.66,.33,.82,1.33,1.41,1.67,2.3,.32,.83,.56,1.74,.85,2.64,.28,.85,.26,1.82,.47,2.74,.21,.87,.18,1.8,.3,2.73,.12,.89,.61,1.77,.63,2.71,0,.29,.02,.04,.23-.16,.48-.68,1.19-1.12,1.57-1.71,.47-.73,.97-1.33,1.32-1.89,.78-1.13,1.28-1.61,1.68-2.17s.52-1.31,1.28-2.46c.51-.8,1.12-1.48,1.6-2.2,.52-.8,.95-1.6,1.43-2.31,.54-.8,.97-1.61,1.45-2.3,.57-.81,1.22-1.46,1.71-2.12,.62-.83,1-1.69,1.5-2.28,.56-.67,1.38-1.06,1.99-1.62,.64-.59,1.3-1.09,1.99-1.54,.72-.47,1.29-1.21,2.06-1.53,.86-.36,1.94-.44,3.06-.66,.93-.18,1.97-.18,3.08-.26,.97-.07,1.99-.02,3.09-.02,.22,0,.39-.23,.47-.37-.45,.96-.49,2.01-.87,2.8-.46,.97-.89,1.83-1.27,2.61Z"/><path class="cls-1" d="M435.88,39.59c-.46,.97-.66,1.94-1.04,2.73-.48,.97-.96,1.79-1.36,2.57-.47,.92-1.16,1.61-1.6,2.44-.44,.83-.63,1.79-1.11,2.7-.41,.77-.99,1.54-1.49,2.49-.4,.77-1.04,1.52-1.53,2.48-.4,.79-.38,1.88-.86,2.83-.48,.95-1.42,1.55-1.81,2.34-.49,.96-.9,1.82-1.3,2.6-.49,.96-.47,2.04-.86,2.82-.46,.92-1.43,1.48-1.85,2.32-.42,.83-.64,1.77-1.11,2.69-.4,.78-.71,1.69-1.19,2.65-.39,.78-.65,1.72-1.14,2.68-.4,.79-.78,1.68-1.25,2.63-.48,.95-1.19,1.66-1.59,2.45-.49,.96-.65,1.95-1.05,2.73-.5,.96-1.43,1.54-1.84,2.32-.48,.92-.58,1.92-1.01,2.75-.43,.83-.87,1.65-1.34,2.57-.4,.78-.86,1.61-1.34,2.57-.39,.78-.58,1.75-1.05,2.72-.39,.79-1.18,1.48-1.65,2.43-.15,.3-.22,.5,.12,.51,1.01,.03,1.94,.23,2.81,.25,1.03,.02,1.96-.13,2.82-.12,1.03,.02,1.96,.53,2.81,.54,1.01,0,1.93-.41,2.81-.42,.95,0,1.86,.3,2.81,.29,.88-.01,1.79-.16,2.81-.17,.85-.01,1.78,.22,2.81,.22,.85,0,1.78-.64,2.81-.64,.87,0,1.8,.49,2.82,.49,.95,0,1.88-.37,2.74-.27,.95,.1,1.81,.52,2.65,.7,.93,.2,1.86,.24,2.69,.5,.91,.29,1.84,.4,2.65,.71,.89,.33,1.54,1.22,2.35,1.51,.9,.32,1.81,.5,2.66,.68,.91,.19,1.84,.19,2.74,.11,.85-.08,1.79-.18,2.69-.6,.74-.35,1.51-.88,2.3-1.53,.64-.52,1.35-1.11,2.04-1.84,.73-.78,1.3-1.58,1.81-2.29,.63-.87,1.04-1.77,1.39-2.56,.43-.97,.83-1.88,.93-2.78,.11-.98,.07-1.99-.1-2.95-.16-.91-.69-1.78-1.01-2.74-.29-.87-.53-1.81-.87-2.77-.31-.87-.5-1.82-.79-2.78-.27-.88-.97-1.7-1.19-2.69-.2-.9-.42-1.87-.54-2.88-.11-.91,.43-1.92,.41-2.94,0-.29-.47-.08-.64,.15-.61,.81-1.26,1.34-1.66,1.9-.59,.82-.88,1.53-1.3,2.16-.41,.62-.73,1.31-1.28,2.16-.38,.58-1.23,.99-1.79,1.83-.52,.8-1.06,1.53-1.54,2.25-.53,.8-.93,1.63-1.41,2.34-.55,.8-.92,1.65-1.41,2.34-.58,.81-1,1.63-1.49,2.29-.63,.83-1.46,1.33-1.96,1.92-.56,.67-1.07,1.33-1.67,1.89-.64,.6-1.28,1.11-1.96,1.57-.72,.48-1.49,.74-2.26,1.07-.86,.36-1.73,.97-2.85,1.17-.94,.17-1.99,.02-3.1,.09-.97,.06-1.99,.59-3.09,.59-.62,0-1.63,.24-1.38-.32,.44-.97,.83-1.85,1.2-2.65,.45-.98,1.27-1.65,1.65-2.44,.47-.97,.57-1.98,.97-2.77,.47-.92,.84-1.79,1.29-2.61,.44-.82,.79-1.7,1.29-2.61,.42-.77,1.18-1.44,1.69-2.39,.41-.77,.96-1.57,1.46-2.52,.41-.79,.97-1.59,1.45-2.53,.48-.95,.62-1.96,1.02-2.75,.49-.96,1.05-1.75,1.45-2.53,.49-.96,.83-1.85,1.23-2.64,.46-.92,.78-1.81,1.2-2.65,.42-.84,.96-1.61,1.43-2.54,.39-.79,.61-1.74,1.1-2.7,.39-.78,1.12-1.48,1.61-2.44,.4-.79,.85-1.64,1.34-2.59,.48-.95,.59-1.98,.99-2.76,.49-.96,1.13-1.71,1.54-2.48,.5-.96,1.06-1.74,1.47-2.52,.49-.91,1-1.7,1.44-2.53,.44-.83,.96-1.62,1.43-2.53,.41-.78,.47-1.81,.97-2.77,.4-.78,.84-1.63,1.32-2.59,.4-.79,.93-1.61,1.4-2.56,.15-.3,.29-.34-.04-.35-1.01-.03-1.93-.48-2.79-.5-1.02-.02-1.96,.42-2.81,.4-1.03-.02-1.95-.3-2.8-.31-1.01,0-1.92,.26-2.8,.26-.95,0-1.86-.57-2.8-.56-.88,0-1.79,.09-2.8,.1-.85,0-1.77,.43-2.8,.44-.85,0-1.78-.16-2.8-.16-.86,0-1.79,.24-2.81,.24s-2-.17-2.9-.23c-1.03-.08-2-.17-2.89-.32-1.02-.17-1.85-.86-2.73-1.07-1-.24-1.95-.34-2.83-.57-.97-.26-1.94-.23-2.87-.39-.93-.16-1.85-.43-2.85-.39-.89,.04-1.89-.02-2.91,.25-.84,.22-1.62,.91-2.6,1.32-.81,.34-1.85,.39-2.79,.88-.91,.48-1.48,1.32-2.13,1.82-.84,.64-1.65,1.12-2.12,1.78-.58,.81-.74,1.74-.88,2.61-.14,.88,.04,1.74,.23,2.69,.16,.85-.02,1.86,.31,2.78,.29,.82,1.15,1.48,1.52,2.37,.33,.82,.58,1.72,.92,2.61,.32,.83,.26,1.83,.55,2.73,.28,.85,.76,1.66,.97,2.58,.21,.87,.39,1.77,.51,2.71,.12,.89,.55,1.79,.57,2.74,0,.29,0,.16,.21-.03,.48-.68,.91-1.33,1.31-1.9,.5-.71,1.16-1.19,1.51-1.76,.78-1.13,.89-1.89,1.29-2.45,.4-.56,.96-1.01,1.72-2.15,.51-.8,1.05-1.52,1.53-2.25,.52-.8,1.12-1.49,1.6-2.2,.54-.8,.7-1.79,1.18-2.49,.57-.81,1.25-1.44,1.74-2.1,.62-.83,.95-1.73,1.45-2.33,.56-.67,1.22-1.25,1.82-1.81,.64-.6,1.46-.94,2.14-1.4,.72-.48,1.45-.88,2.22-1.21,.86-.36,1.87-.49,3-.7,.94-.18,1.95-.15,3.06-.23,.97-.07,1.98-.57,3.08-.57,.38,0,1.19-.1,1.03,.24-.45,.96-1.08,1.73-1.46,2.52Z"/></g></g></g></g></svg>